<?xml version="1.0" standalone="no"?>
<!DOCTYPE svg PUBLIC "-//W3C//DTD SVG 20010904//EN"
 "http://www.w3.org/TR/2001/REC-SVG-20010904/DTD/svg10.dtd">
<svg version="1.0" xmlns="http://www.w3.org/2000/svg"
 width="377.000000pt" height="219.000000pt" viewBox="0 0 377.000000 219.000000"
 preserveAspectRatio="xMidYMid meet">

<g transform="translate(0.000000,219.000000) scale(0.100000,-0.100000)"
fill="#000000" stroke="none">
<path d="M1510 1414 l0 -235 -33 25 c-19 14 -48 31 -65 37 l-31 11 34 34 c41
41 59 100 50 164 -10 69 -37 107 -98 135 -48 23 -63 25 -214 25 l-163 0 0
-386 0 -386 193 4 c210 4 228 8 295 71 l32 31 0 -52 0 -52 80 0 80 0 0 60 0
59 49 -49 c63 -63 130 -84 240 -78 87 5 147 31 197 84 l32 33 30 -38 c45 -56
103 -81 188 -81 50 0 81 6 109 20 21 11 41 18 43 15 9 -9 -10 -74 -29 -99 -40
-51 -137 -53 -202 -5 l-30 22 -64 -32 c-58 -28 -63 -34 -52 -49 67 -89 128
-117 259 -116 66 0 97 6 138 24 64 28 116 85 131 145 7 26 11 147 11 304 l0
261 -80 0 c-73 0 -80 -2 -80 -20 0 -25 1 -25 -51 5 -35 20 -58 25 -112 25 -81
0 -130 -22 -178 -78 l-32 -39 -36 36 c-56 56 -104 75 -198 79 -111 5 -171 -15
-235 -79 l-48 -48 0 224 0 225 -80 0 -80 0 0 -236z m-261 55 c55 -19 68 -78
28 -125 -19 -21 -33 -27 -68 -28 l-44 -1 -3 83 -3 82 29 0 c16 0 43 -5 61 -11z
m751 -298 c37 -26 51 -60 46 -106 -9 -77 -94 -118 -171 -83 -70 32 -72 161 -3
195 54 27 85 25 128 -6z m516 3 c27 -18 44 -56 44 -100 0 -28 -8 -44 -34 -70
-29 -29 -41 -34 -80 -34 -36 0 -52 6 -78 29 -29 26 -33 36 -33 79 0 36 6 56
20 72 43 48 108 58 161 24z m-1191 -44 c22 -20 25 -32 23 -69 -4 -60 -32 -80
-118 -83 l-65 -3 -3 94 -3 93 70 -4 c57 -3 75 -8 96 -28z"/>
<path d="M2764 1006 c-46 -46 -47 -99 -5 -145 65 -70 181 -19 181 79 0 47 -55
100 -105 100 -29 0 -45 -8 -71 -34z"/>
<path d="M1780 635 c0 -56 3 -65 18 -65 13 0 24 16 38 53 l19 52 3 -52 c4 -67
26 -72 50 -10 l17 42 5 -35 c7 -47 47 -63 87 -34 27 19 29 19 46 2 22 -24 48
-23 81 3 31 24 35 68 8 92 -25 22 -58 21 -81 -2 -19 -19 -20 -19 -37 0 -19 21
-45 24 -75 9 -13 -7 -19 -7 -19 0 0 27 -20 4 -36 -42 l-19 -52 -5 50 c-7 69
-30 70 -55 2 l-20 -53 -3 53 c-4 75 -22 65 -22 -13z m245 26 c3 -10 1 -31 -5
-45 -8 -22 -15 -27 -38 -24 -31 3 -41 33 -22 67 14 27 56 28 65 2z m120 0 c3
-10 1 -31 -5 -45 -8 -22 -15 -27 -38 -24 -31 3 -41 33 -22 67 14 27 56 28 65
2z"/>
</g>
</svg>
